<svg width="144" height="36" xmlns="http://www.w3.org/2000/svg">

 <g>
  <title>Layer 1</title>
  <path id="svg_1" d="m25.071,10.929c-0.256,0 -0.512,-0.098 -0.707,-0.293c-0.391,-0.391 -0.391,-1.023 0,-1.414l7.778,-7.778c0.391,-0.391 1.023,-0.391 1.414,0s0.391,1.023 0,1.414l-7.778,7.778c-0.195,0.195 -0.451,0.293 -0.707,0.293z" fill="#66757F"/>
  <path id="svg_2" d="m6.687,32.557c-0.781,0.78 -2.048,0.78 -2.829,0l-1.414,-1.414c-0.781,-0.781 -0.781,-2.048 0,-2.829l4.95,-4.949c0.781,-0.781 2.047,-0.781 2.828,0l1.415,1.414c0.781,0.781 0.781,2.047 0,2.828l-4.95,4.95z" fill="#CCD6DD"/>
  <path id="svg_3" d="m26.839,12.404c-0.586,0.586 -1.536,0.585 -2.121,0l-2.121,-2.121c-0.586,-0.586 -0.586,-1.536 0,-2.122c0.585,-0.586 1.535,-0.586 2.121,0l2.121,2.122c0.586,0.585 0.586,1.535 0,2.121z" fill="#99AAB5"/>
  <path id="svg_4" d="m14.464,27.606c-0.781,0.781 -2.047,0.781 -2.828,0l-4.243,-4.242c-0.781,-0.781 -0.781,-2.048 0,-2.829l12.021,-12.02c0.781,-0.781 2.048,-0.781 2.828,0l4.243,4.243c0.781,0.781 0.781,2.047 0,2.829l-12.021,12.019z" fill="#E1E8ED"/>
  <path id="svg_5" d="m18.707,23.364c-0.781,0.78 -1.34,0.073 -2.121,-0.707l-4.243,-4.243c-0.781,-0.781 -1.488,-1.34 -0.707,-2.121l7.778,-7.778c0.781,-0.781 2.048,-0.781 2.828,0l4.243,4.243c0.781,0.781 0.781,2.047 0,2.829l-7.778,7.777z" fill="#DD2E44"/>
  <path id="svg_6" d="m14.818,30.081c-0.585,0.586 -1.536,0.586 -2.121,0l-7.778,-7.777c-0.586,-0.586 -0.585,-1.536 0,-2.122c0.585,-0.586 1.536,-0.586 2.122,0l7.778,7.778c0.585,0.586 0.585,1.536 -0.001,2.121zm-7.071,4.243c-0.585,0.586 -1.536,0.586 -2.122,0l-4.95,-4.95c-0.586,-0.586 -0.585,-1.535 0,-2.121c0.585,-0.586 1.536,-0.586 2.122,0l4.95,4.95c0.586,0.585 0.586,1.535 0,2.121z" fill="#99AAB5"/>
  <path id="svg_7" d="m33.883,16.502c-0.374,-0.582 -0.887,-1.38 -1.535,-2.676c-0.131,-0.264 -0.564,-0.264 -0.695,0c-0.648,1.296 -1.161,2.094 -1.535,2.676c-0.523,0.814 -0.839,1.306 -0.839,2.164c0,1.501 1.221,2.722 2.722,2.722s2.722,-1.221 2.722,-2.722c-0.001,-0.858 -0.317,-1.35 -0.84,-2.164zm-4,9c-0.374,-0.582 -0.887,-1.38 -1.535,-2.676c-0.131,-0.264 -0.565,-0.264 -0.695,0c-0.648,1.296 -1.161,2.094 -1.535,2.676c-0.523,0.814 -0.839,1.307 -0.839,2.164c0,1.501 1.221,2.723 2.722,2.723s2.722,-1.222 2.722,-2.723c-0.001,-0.857 -0.317,-1.35 -0.84,-2.164z" fill="#DD2E44"/>
  <text transform="matrix(0.352972, 0, 0, 0.383298, 55.3781, 18.7604)" xml:space="preserve" text-anchor="start" font-family="'Tourney'" font-size="24" id="svg_9" y="38.45298" x="-39.34599" stroke-width="0" stroke="#000" fill="#000000">Value Added eXchange</text>
  <text xml:space="preserve" text-anchor="start" font-family="'Tourney'" font-size="34" id="svg_12" y="25.23402" x="42.46777" stroke-width="0" stroke="#000" fill="#000000">V.A.X.</text>
 </g>
</svg>