<svg width="104" height="34" xmlns="http://www.w3.org/2000/svg">
 <g>
  <title>Layer 1</title>
  <polyline stroke-width="6" xmlns="http://www.w3.org/2000/svg" fill="none" stroke="#DD2E44" stroke-linecap="round" points="3.8975354433059692,4.95514452457428 27.62477695941925,28.955145001411438 51.35196506977081,4.95514452457428 75.07924473285675,28.955145001411438 98.80675327777863,4.95514452457428 " id="svg_8"/>
  <g id="svg_21" transform="rotate(90, 80.8614, 16.8064)">
   <path id="svg_15" d="m88.88929,9.77825c-0.256,0 -0.512,-0.098 -0.707,-0.293c-0.391,-0.391 -0.391,-1.023 0,-1.414l7.778,-7.778c0.391,-0.391 1.023,-0.391 1.414,0s0.391,1.023 0,1.414l-7.778,7.778c-0.195,0.195 -0.451,0.293 -0.707,0.293z" fill="#66757F"/>
   <path id="svg_16" d="m70.50529,31.40625c-0.781,0.78 -2.048,0.78 -2.829,0l-1.414,-1.414c-0.781,-0.781 -0.781,-2.048 0,-2.829l4.95,-4.949c0.781,-0.781 2.047,-0.781 2.828,0l1.415,1.414c0.781,0.781 0.781,2.047 0,2.828l-4.95,4.95z" fill="#CCD6DD"/>
   <path id="svg_17" d="m90.65729,11.25325c-0.586,0.586 -1.536,0.585 -2.121,0l-2.121,-2.121c-0.586,-0.586 -0.586,-1.536 0,-2.122c0.585,-0.586 1.535,-0.586 2.121,0l2.121,2.122c0.586,0.585 0.586,1.535 0,2.121z" fill="#99AAB5"/>
   <path id="svg_18" d="m78.28229,26.45525c-0.781,0.781 -2.047,0.781 -2.828,0l-4.243,-4.242c-0.781,-0.781 -0.781,-2.048 0,-2.829l12.021,-12.02c0.781,-0.781 2.048,-0.781 2.828,0l4.243,4.243c0.781,0.781 0.781,2.047 0,2.829l-12.021,12.019z" fill="#E1E8ED"/>
   <path id="svg_19" d="m82.52529,22.21325c-0.781,0.78 -1.34,0.073 -2.121,-0.707l-4.243,-4.243c-0.781,-0.781 -1.488,-1.34 -0.707,-2.121l7.778,-7.778c0.781,-0.781 2.048,-0.781 2.828,0l4.243,4.243c0.781,0.781 0.781,2.047 0,2.829l-7.778,7.777z" fill="#DD2E44"/>
   <path id="svg_20" d="m78.63629,28.93025c-0.585,0.586 -1.536,0.586 -2.121,0l-7.778,-7.777c-0.586,-0.586 -0.585,-1.536 0,-2.122c0.585,-0.586 1.536,-0.586 2.122,0l7.778,7.778c0.585,0.586 0.585,1.536 -0.001,2.121zm-7.071,4.243c-0.585,0.586 -1.536,0.586 -2.122,0l-4.95,-4.95c-0.586,-0.586 -0.585,-1.535 0,-2.121c0.585,-0.586 1.536,-0.586 2.122,0l4.95,4.95c0.586,0.585 0.586,1.535 0,2.121z" fill="#99AAB5"/>
  </g>
  <g id="svg_22" transform="rotate(30, 49.8915, 19.8449)">
   <path xmlns="http://www.w3.org/2000/svg" id="svg_7" d="m50.73129,15.38061c-0.20839,-0.33578 -0.49423,-0.79618 -0.8553,-1.54389c-0.07299,-0.15231 -0.31426,-0.15231 -0.38725,0c-0.36106,0.74771 -0.64691,1.20811 -0.8553,1.54389c-0.29141,0.46963 -0.46749,0.75348 -0.46749,1.2485c0,0.86599 0.68034,1.57043 1.51669,1.57043s1.51669,-0.70444 1.51669,-1.57043c-0.00056,-0.49501 -0.17663,-0.77887 -0.46805,-1.2485l0.00001,0zm-2.22879,5.19245c-0.20839,-0.33578 -0.49423,-0.79618 -0.8553,-1.54389c-0.07299,-0.15231 -0.31482,-0.15231 -0.38725,0c-0.36106,0.74771 -0.64691,1.20811 -0.8553,1.54389c-0.29141,0.46963 -0.46749,0.75406 -0.46749,1.2485c0,0.86599 0.68034,1.57101 1.51669,1.57101s1.51669,-0.70502 1.51669,-1.57101c-0.00056,-0.49444 -0.17663,-0.77887 -0.46805,-1.2485l0.00001,0z" fill="#DD2E44"/>
   <path xmlns="http://www.w3.org/2000/svg" id="svg_7" fill="#DD2E44" d="m53.14597,21.88269c-0.31155,-0.48655 -0.73888,-1.15366 -1.27867,-2.23711c-0.10912,-0.2207 -0.46982,-0.2207 -0.57894,0c-0.53979,1.08344 -0.96712,1.75056 -1.27867,2.23711c-0.43566,0.68049 -0.6989,1.0918 -0.6989,1.80908c0,1.25482 1.01711,2.27556 2.26745,2.27556s2.26745,-1.02074 2.26745,-2.27556c-0.00083,-0.71728 -0.26406,-1.12858 -0.69973,-1.80908l0.00001,0z"/>
  </g>
 </g>

</svg>