<svg width="144" height="36" xmlns="http://www.w3.org/2000/svg" style="vector-effect: non-scaling-stroke;">
 <g>
  <title>Layer 1</title>
  <polyline id="svg_8" points="42.000038146972656,5.816513761878014 65.72727966308594,29.816513761878014 89.4544677734375,5.816513761878014 113.18174743652344,29.816513761878014 136.9092559814453,5.816513761878014 " stroke-linecap="round" stroke-width="4" stroke="#DD2E44" fill="none" xmlns="http://www.w3.org/2000/svg"/>
  <g style="vector-effect: non-scaling-stroke;" id="svg_14">
   <path style="vector-effect: non-scaling-stroke;" fill="#66757F" d="m25.071,10.929c-0.256,0 -0.512,-0.098 -0.707,-0.293c-0.391,-0.391 -0.391,-1.023 0,-1.414l7.778,-7.778c0.391,-0.391 1.023,-0.391 1.414,0s0.391,1.023 0,1.414l-7.778,7.778c-0.195,0.195 -0.451,0.293 -0.707,0.293z" id="svg_1"/>
   <path fill="#CCD6DD" d="m6.687,32.557c-0.781,0.78 -2.048,0.78 -2.829,0l-1.414,-1.414c-0.781,-0.781 -0.781,-2.048 0,-2.829l4.95,-4.949c0.781,-0.781 2.047,-0.781 2.828,0l1.415,1.414c0.781,0.781 0.781,2.047 0,2.828l-4.95,4.95z" id="svg_2"/>
   <path fill="#99AAB5" d="m26.839,12.404c-0.586,0.586 -1.536,0.585 -2.121,0l-2.121,-2.121c-0.586,-0.586 -0.586,-1.536 0,-2.122c0.585,-0.586 1.535,-0.586 2.121,0l2.121,2.122c0.586,0.585 0.586,1.535 0,2.121z" id="svg_3"/>
   <path fill="#E1E8ED" d="m14.464,27.606c-0.781,0.781 -2.047,0.781 -2.828,0l-4.243,-4.242c-0.781,-0.781 -0.781,-2.048 0,-2.829l12.021,-12.02c0.781,-0.781 2.048,-0.781 2.828,0l4.243,4.243c0.781,0.781 0.781,2.047 0,2.829l-12.021,12.019z" id="svg_4"/>
   <path style="vector-effect: non-scaling-stroke;" fill="#DD2E44" d="m18.707,23.364c-0.781,0.78 -1.34,0.073 -2.121,-0.707l-4.243,-4.243c-0.781,-0.781 -1.488,-1.34 -0.707,-2.121l7.778,-7.778c0.781,-0.781 2.048,-0.781 2.828,0l4.243,4.243c0.781,0.781 0.781,2.047 0,2.829l-7.778,7.777z" id="svg_5"/>
   <path style="vector-effect: non-scaling-stroke;" fill="#99AAB5" d="m14.818,30.081c-0.585,0.586 -1.536,0.586 -2.121,0l-7.778,-7.777c-0.586,-0.586 -0.585,-1.536 0,-2.122c0.585,-0.586 1.536,-0.586 2.122,0l7.778,7.778c0.585,0.586 0.585,1.536 -0.001,2.121zm-7.071,4.243c-0.585,0.586 -1.536,0.586 -2.122,0l-4.95,-4.95c-0.586,-0.586 -0.585,-1.535 0,-2.121c0.585,-0.586 1.536,-0.586 2.122,0l4.95,4.95c0.586,0.585 0.586,1.535 0,2.121z" id="svg_6"/>
  </g>
  <g transform="rotate(90, 120.861, 17.2298)" id="svg_21">
   <path fill="#66757F" d="m128.88933,10.20173c-0.256,0 -0.512,-0.098 -0.707,-0.293c-0.391,-0.391 -0.391,-1.023 0,-1.414l7.778,-7.778c0.391,-0.391 1.023,-0.391 1.414,0s0.391,1.023 0,1.414l-7.778,7.778c-0.195,0.195 -0.451,0.293 -0.707,0.293z" id="svg_15"/>
   <path fill="#CCD6DD" d="m110.50533,31.82973c-0.781,0.78 -2.048,0.78 -2.829,0l-1.414,-1.414c-0.781,-0.781 -0.781,-2.048 0,-2.829l4.95,-4.949c0.781,-0.781 2.047,-0.781 2.828,0l1.415,1.414c0.781,0.781 0.781,2.047 0,2.828l-4.95,4.95z" id="svg_16"/>
   <path fill="#99AAB5" d="m130.65733,11.67673c-0.586,0.586 -1.536,0.585 -2.121,0l-2.121,-2.121c-0.586,-0.586 -0.586,-1.536 0,-2.122c0.585,-0.586 1.535,-0.586 2.121,0l2.121,2.122c0.586,0.585 0.586,1.535 0,2.121z" id="svg_17"/>
   <path fill="#E1E8ED" d="m118.28233,26.87873c-0.781,0.781 -2.047,0.781 -2.828,0l-4.243,-4.242c-0.781,-0.781 -0.781,-2.048 0,-2.829l12.021,-12.02c0.781,-0.781 2.048,-0.781 2.828,0l4.243,4.243c0.781,0.781 0.781,2.047 0,2.829l-12.021,12.019z" id="svg_18"/>
   <path fill="#DD2E44" d="m122.52533,22.63673c-0.781,0.78 -1.34,0.073 -2.121,-0.707l-4.243,-4.243c-0.781,-0.781 -1.488,-1.34 -0.707,-2.121l7.778,-7.778c0.781,-0.781 2.048,-0.781 2.828,0l4.243,4.243c0.781,0.781 0.781,2.047 0,2.829l-7.778,7.777z" id="svg_19"/>
   <path fill="#99AAB5" d="m118.63633,29.35373c-0.585,0.586 -1.536,0.586 -2.121,0l-7.778,-7.777c-0.586,-0.586 -0.585,-1.536 0,-2.122c0.585,-0.586 1.536,-0.586 2.122,0l7.778,7.778c0.585,0.586 0.585,1.536 -0.001,2.121zm-7.071,4.243c-0.585,0.586 -1.536,0.586 -2.122,0l-4.95,-4.95c-0.586,-0.586 -0.585,-1.535 0,-2.121c0.585,-0.586 1.536,-0.586 2.122,0l4.95,4.95c0.586,0.585 0.586,1.535 0,2.121z" id="svg_20"/>
  </g>
  <g transform="rotate(30, 88.8697, 20.1224)" id="svg_22">
   <path fill="#DD2E44" d="m89.70958,15.65812c-0.20839,-0.33578 -0.49423,-0.79618 -0.8553,-1.54389c-0.07299,-0.15231 -0.31426,-0.15231 -0.38725,0c-0.36106,0.74771 -0.64691,1.20811 -0.8553,1.54389c-0.29141,0.46963 -0.46749,0.75348 -0.46749,1.2485c0,0.86599 0.68034,1.57043 1.51669,1.57043s1.51669,-0.70444 1.51669,-1.57043c-0.00056,-0.49501 -0.17663,-0.77887 -0.46805,-1.2485zm-2.22879,5.19245c-0.20839,-0.33578 -0.49423,-0.79618 -0.8553,-1.54389c-0.07299,-0.15231 -0.31482,-0.15231 -0.38725,0c-0.36106,0.74771 -0.64691,1.20811 -0.8553,1.54389c-0.29141,0.46963 -0.46749,0.75406 -0.46749,1.2485c0,0.86599 0.68034,1.57101 1.51669,1.57101s1.51669,-0.70502 1.51669,-1.57101c-0.00056,-0.49444 -0.17663,-0.77887 -0.46805,-1.2485z" id="svg_7" xmlns="http://www.w3.org/2000/svg"/>
   <path d="m92.12426,22.1602c-0.31155,-0.48655 -0.73888,-1.15366 -1.27867,-2.23711c-0.10912,-0.2207 -0.46982,-0.2207 -0.57894,0c-0.53979,1.08344 -0.96712,1.75056 -1.27867,2.23711c-0.43566,0.68049 -0.6989,1.0918 -0.6989,1.80908c0,1.25482 1.01711,2.27556 2.26745,2.27556s2.26745,-1.02074 2.26745,-2.27556c-0.00083,-0.71728 -0.26406,-1.12858 -0.69973,-1.80908z" fill="#DD2E44" id="svg_7" xmlns="http://www.w3.org/2000/svg"/>
  </g>
 </g>

</svg>